<svg width="24" height="24" viewBox="0 0 24 24" xmlns="http://www.w3.org/2000/svg">
    <g fill="none" fill-rule="evenodd">
        <path d="M0 24h24V0H0z"/>
        <path d="M12 21.75c5.385 0 9.75-4.365 9.75-9.75S17.385 2.25 12 2.25c-5.384 0-9.75 4.365-9.75 9.75s4.366 9.75 9.75 9.75zm0-1.5a8.25 8.25 0 1 1 0-16.5 8.25 8.25 0 0 1 0 16.5zm0-6.5a.75.75 0 0 0 .75-.75V8.029l-.007-.102a.75.75 0 0 0-1.493.102V13l.007.102a.75.75 0 0 0 .743.648zm0 2.75a.75.75 0 1 0 0-1.5.75.75 0 0 0 0 1.5z" fill="#000"/>
    </g>
</svg>
