<svg xmlns="http://www.w3.org/2000/svg" width="24" height="24" viewBox="0 0 24 24">
    <g fill="none" fill-rule="evenodd">
        <g>
            <g>
                <path d="M0 0H24V24H0z"/>
            </g>
            <path fill="#000" d="M12 2.25c5.385 0 9.75 4.365 9.75 9.75s-4.365 9.75-9.75 9.75c-5.384 0-9.75-4.365-9.75-9.75S6.616 2.25 12 2.25zm0 1.5c-4.556 0-8.25 3.694-8.25 8.25 0 4.557 3.694 8.25 8.25 8.25 4.557 0 8.25-3.693 8.25-8.25 0-4.556-3.693-8.25-8.25-8.25zm0 6.5c.414 0 .75.336.75.75v4.971l-.007.102c-.05.366-.363.648-.743.648-.414 0-.75-.336-.75-.75V11l.007-.102c.05-.366.363-.648.743-.648zm0-2.75c.414 0 .75.336.75.75S12.414 9 12 9s-.75-.336-.75-.75.336-.75.75-.75z"/>
        </g>
    </g>
</svg>
